<?xml version="1.0" encoding="utf-8"?>
<!-- Generator: Adobe Illustrator 21.0.0, SVG Export Plug-In . SVG Version: 6.00 Build 0)  -->
<svg version="1.1" id="Layer_1" xmlns="http://www.w3.org/2000/svg" xmlns:xlink="http://www.w3.org/1999/xlink" x="0px" y="0px"
	 viewBox="0 0 219.9 200" style="enable-background:new 0 0 219.9 200;" xml:space="preserve">
<style type="text/css">
	.st0{fill:#FFFFFF;}
</style>
<path class="st0" d="M154.8,74.1c0,2.8,2.2,5,4.9,5h55.3c2.8,0,5-2.3,4.9-5c0-2.8-2.2-5-4.9-5h-55.3C157,69.1,154.8,71.3,154.8,74.1
	L154.8,74.1z M214.2,89.9h-65.4c-3.2,0-5.8,2.3-5.8,5c0,2.8,2.6,5,5.8,5h65.4c3.2,0,5.8-2.3,5.8-5C220,92.1,217.4,89.9,214.2,89.9
	L214.2,89.9z M215.1,110.7h-55.3c-2.8,0-5,2.3-4.9,5c0,2.8,2.2,5,4.9,5h55.3c2.7,0,5-2.3,4.9-5C220,112.9,217.8,110.7,215.1,110.7
	L215.1,110.7z M106.1,200H66.7C29.5,200,0,200,0,180.4v-3.9c0-36.7,29.9-66.6,66.7-66.6h39.3c36.8,0,66.8,29.9,66.8,66.6v3.9
	C172.8,200,141.9,200,106.1,200L106.1,200z M66.4,120.9c-30.9,0-56.1,25.1-56.1,55.9v4c0,8,32.4,8,56.1,8h40c19.6,0,56.1,0,56.1-8
	v-4c0-30.8-25.2-55.9-56.1-55.9L66.4,120.9L66.4,120.9z M84.4,105.9c-29.2,0-52.9-23.7-53-52.9C31.5,23.7,55.2,0,84.4,0
	c29.2,0,52.9,23.7,53,52.9C137.4,82.2,113.7,105.9,84.4,105.9z M42.4,52.8c0,23.1,18.9,41.9,42.1,41.9c23.2,0,42.1-18.8,42.1-41.9
	c0-23.1-18.9-41.9-42.1-41.9S42.4,29.7,42.4,52.8z"/>
</svg>
